
<svg width="475px" height="475px" viewBox="19 19 475 475" version="1.1" xmlns="http://www.w3.org/2000/svg" xmlns:xlink="http://www.w3.org/1999/xlink">
    <!-- Generator: Sketch 3.8.3 (29802) - http://www.bohemiancoding.com/sketch -->
    <desc>Created with Sketch.</desc>
    <defs>
        <rect id="path-1" x="0" y="0" width="475" height="475"></rect>
        <rect id="path-3" x="0" y="0" width="475" height="475"></rect>
    </defs>
    <g id="saw" stroke="none" stroke-width="1" fill="none" fill-rule="evenodd" transform="translate(19.000000, 19.000000)">
        <g id="Layer_1">
            <g id="Group">
                <g id="Clipped">
                    <mask id="mask-2" fill="white">
                        <use xlink:href="#path-1"></use>
                    </mask>
                    <g id="SVGID_1_"></g>
                    <path d="M468.333036,110.047321 C460.546429,103.600893 448.942857,104.7375 442.547321,112.575 L442.530357,112.575 L343.06875,30.1285714 C349.48125,22.3080357 348.344643,10.6366071 340.558036,4.19017857 C332.771429,-2.23928571 321.167857,-1.10267857 314.755357,6.71785714 L233.258929,106.366071 L361.033929,212.20625 C376.607143,225.082143 399.83125,222.808929 412.639286,207.150893 L470.860714,135.985714 C477.25625,128.148214 476.119643,116.476786 468.333036,110.047321 M407.600893,155.274107 L395.963393,169.507143 C389.550893,177.344643 377.947321,178.48125 370.160714,172.034821 L299.0125,113.016071 C291.225893,106.569643 290.089286,94.8982143 296.501786,87.0776786 L308.139286,72.8446429 C314.551786,65.0071429 326.155357,63.8705357 333.941964,70.3169643 L405.090179,129.335714 C412.876786,135.765179 414.013393,147.453571 407.600893,155.274107" id="Shape" fill="#231F20" mask="url(#mask-2)"></path>
                </g>
                <g id="Clipped">
                    <mask id="mask-4" fill="white">
                        <use xlink:href="#path-3"></use>
                    </mask>
                    <g id="SVGID_1_"></g>
                    <polygon id="Shape" fill="#231F20" mask="url(#mask-4)" points="221.723214 118.834821 0 390.195536 84.8214286 475.016964 135.714286 475.016964 135.714286 424.124107 186.607143 424.124107 186.607143 373.23125 237.5 373.23125 237.5 322.338393 288.392857 322.338393 288.392857 271.445536 339.285714 271.445536 339.285714 216.226786 222.435714 119.428571"></polygon>
                </g>
            </g>
        </g>
    </g>
</svg>