
<svg width="251px" height="251px" viewBox="-5848 -2915 251 251" version="1.1" xmlns="http://www.w3.org/2000/svg" xmlns:xlink="http://www.w3.org/1999/xlink">
    <!-- Generator: Sketch 3.8.3 (29802) - http://www.bohemiancoding.com/sketch -->
    <desc>Created with Sketch.</desc>
    <defs></defs>
    <g id="bolt-cutters" stroke="none" stroke-width="1" fill="none" fill-rule="evenodd" transform="translate(-5847.000000, -2914.000000)">
        <path class="shed-icon-color" d="M82.029075,257.516579 L99.8186864,258.676385 C109.649318,259.300896 103.79372,251.887052 104.435429,242.07331 C105.077139,232.250646 111.95769,223.792992 102.118145,223.159559 C111.95769,223.792992 106.611368,216.370242 107.244165,206.5565 C107.885875,196.742758 114.274974,188.276166 104.435429,187.642734 L112.581574,62.4372252 L137.287387,62.4372252 L145.433532,187.642734 C135.593987,188.276166 141.091732,196.742758 141.733441,206.5565 C142.366238,216.370242 137.911271,223.792992 147.750816,223.159559 C137.911271,223.792992 141.091732,232.250646 141.733441,242.07331 C142.37515,251.887052 140.219642,259.300896 150.050274,258.676385 L167.839886,257.516579 L151.294207,-8.84415079 L97.8184214,-8.84415079 L82.029075,257.516579 Z M124.93448,44.5940574 C120.005795,44.5940574 116.021849,40.6061094 116.021849,35.6724735 C116.021849,30.7388376 120.005795,26.7508896 124.93448,26.7508896 C129.863165,26.7508896 133.847111,30.7388376 133.847111,35.6724735 C133.847111,40.6061094 129.863165,44.5940574 124.93448,44.5940574 Z M118.415395,-8.84415079 L131.904783,-8.84415079 L131.904783,17.7216636 L118.415395,17.7216636 L118.415395,-8.84415079 Z" id="Shape" fill="#231F20" transform="translate(124.934480, 124.934480) rotate(-135.000000) translate(-124.934480, -124.934480) "></path>
    </g>
</svg>