
<svg width="263px" height="312px" viewBox="-5121 -4349 263 312" version="1.1" xmlns="http://www.w3.org/2000/svg" xmlns:xlink="http://www.w3.org/1999/xlink">
    <!-- Generator: Sketch 3.8.3 (29802) - http://www.bohemiancoding.com/sketch -->
    <desc>Created with Sketch.</desc>
    <defs></defs>
    <g id="Group-9" stroke="none" stroke-width="1" fill="none" fill-rule="evenodd" transform="translate(-5115.000000, -4348.000000)">
        <path class="shed-icon-color" d="M118.520875,137.711038 C110.765683,148.493704 113.237976,163.665773 124.020642,171.42964 C134.803307,179.184831 149.975377,176.712539 157.739243,165.929873 L256.865167,28.218835 L217.646798,-9.09494702e-13 L118.520875,137.711038 L118.520875,137.711038 Z" id="Shape" fill="#231F20" transform="translate(185.432583, 87.975257) rotate(-180.000000) translate(-185.432583, -87.975257) "></path>
        <path class="shed-icon-color" d="M53.0275684,168.052211 C55.8357741,160.842794 64.3834661,154.998407 72.1110924,154.998407 L130.347353,154.998407 C138.078687,154.998407 146.483297,160.896524 149.112896,168.153787 L175.129222,239.954587 C177.761811,247.220103 173.628989,253.109968 165.896469,253.109968 L131.099376,253.109968 L33.895455,253.109968 C26.16374,253.109968 22.1721043,247.266461 24.9806529,240.056163 L53.0275684,168.052211 Z" id="Rectangle-38" fill="#000000" transform="translate(100.002128, 204.054187) rotate(-325.000000) translate(-100.002128, -204.054187) "></path>
        <path class="shed-icon-color" d="M61.5,188.5 L0.5,227.5" id="Line" stroke="#FFFFFF" stroke-width="9" stroke-linecap="square"></path>
        <path class="shed-icon-color" d="M77.5,202.5 L16.5,241.5" id="Line-Copy-3" stroke="#FFFFFF" stroke-width="9" stroke-linecap="square"></path>
        <path class="shed-icon-color" d="M95.5,216.5 L34.5,255.5" id="Line-Copy-4" stroke="#FFFFFF" stroke-width="9" stroke-linecap="square"></path>
        <path class="shed-icon-color" d="M111.5,230.5 L50.5,269.5" id="Line-Copy-5" stroke="#FFFFFF" stroke-width="9" stroke-linecap="square"></path>
        <path class="shed-icon-color" d="M124.5,248.5 L63.5,287.5" id="Line-Copy-6" stroke="#FFFFFF" stroke-width="9" stroke-linecap="square"></path>
        <path class="shed-icon-color" d="M129.5,265.5 L68.5,304.5" id="Line-Copy-7" stroke="#FFFFFF" stroke-width="9" stroke-linecap="square"></path>
    </g>
</svg>