
<svg width="298px" height="215px" viewBox="0 0 298 215" version="1.1" xmlns="http://www.w3.org/2000/svg" xmlns:xlink="http://www.w3.org/1999/xlink">
    <!-- Generator: Sketch 3.8.3 (29802) - http://www.bohemiancoding.com/sketch -->
    <desc>Created with Sketch.</desc>
    <defs></defs>
    <path class="shed-icon-color" d="M160.714286,17.8571429 L160.714286,25.1160714 C144.428571,9.89285714 118.544643,0 89.2857143,0 C39.9732143,0 0,27.9910714 0,62.5 C0,83.5982143 14.9821429,102.223214 37.8660714,113.535714 L2.14285714,179.419643 C-2.52678571,188.053571 0.696428571,198.9375 9.33035714,203.625 L25.0357143,212.133929 C33.6607143,216.830357 44.5267857,213.580357 49.1785714,204.9375 L82.9553571,142.053571 C86.9107143,150.017857 95.0535714,155.544643 104.5625,155.544643 C108.75,155.544643 112.633929,154.375 116.071429,152.508929 C106.419643,147.803571 99.7142857,137.973214 99.7142857,126.508929 C99.7142857,125.830357 99.8660714,125.1875 99.9017857,124.526786 C124.776786,122.446429 146.428571,113.223214 160.714286,99.8839286 L160.714286,107.133929 C160.714286,112.071429 164.705357,116.0625 169.642857,116.0625 C174.580357,116.0625 178.571429,112.071429 178.571429,107.133929 C178.571429,107.133929 182.503143,86.1752344 183.642349,69.8091507 C183.82324,67.210428 270.005519,66.0133897 295.208008,62.5 C299.946582,61.8394121 296.214844,56.2770379 296.214844,55.8476562 C296.214844,54.1058319 183.81682,52.446903 183.642347,50.3140718 C182.54834,36.9404521 178.571429,17.8571429 178.571429,17.8571429 C178.571429,12.9196429 174.580357,8.92857143 169.642857,8.92857143 C164.705357,8.92857143 160.714286,12.9196429 160.714286,17.8571429 Z" id="Shape" stroke="none" fill="#000000" fill-rule="evenodd"></path>
</svg>