
<svg width="251px" height="213px" viewBox="-4513 -2913 251 213" version="1.1" xmlns="http://www.w3.org/2000/svg" xmlns:xlink="http://www.w3.org/1999/xlink">
    <!-- Generator: Sketch 3.8.3 (29802) - http://www.bohemiancoding.com/sketch -->
    <desc>Created with Sketch.</desc>
    <defs></defs>
    <g id="hand-grinder" stroke="none" stroke-width="1" fill="none" fill-rule="evenodd" transform="translate(-4512.000000, -2913.000000)">
        <g id="Group-15" fill="#000000">
            <rect class="shed-icon-color" id="Rectangle-85" x="98.9884809" y="37.2662516" width="82.6844958" height="111.798755"></rect>
            <polygon class="shed-icon-color" id="Rectangle-85-Copy-2" points="9.92310998 70.8477299 93.9420093 38.0426319 93.9420093 149.841387 9.92310998 114.049045"></polygon>
            <polygon class="shed-icon-color" id="Shape" transform="translate(138.782114, 16.581264) rotate(-90.000000) translate(-138.782114, -16.581264) " points="122.20085 -24.8760409 122.20085 58.0302778 155.363377 74.6198322 155.363377 -41.4573047"></polygon>
            <polygon class="shed-icon-color" id="Shape" transform="translate(33.860490, 91.811109) rotate(-180.000000) translate(-33.860490, -91.811109) " points="-1.10440467e-14 64.7420251 -1.10440467e-14 118.906681 67.7209798 149.849677 67.7209798 33.7725406"></polygon>
            <path class="shed-icon-color" d="M272.693412,126.355884 C261.070722,116.640983 245.002701,110.019291 226.84167,108.315248 L226.84167,89.3114558 L247.929211,89.3114558 C251.142815,94.8218145 257.051402,98.5725629 263.886099,98.5725629 C274.119622,98.5725629 282.408313,90.2746109 282.408313,80.0503486 C282.408313,69.8168251 274.119622,61.5281342 263.886099,61.5281342 C257.051402,61.5281342 251.142815,65.2788826 247.929211,70.7892414 L226.84167,70.7892414 L226.84167,61.5281342 L208.319456,61.5281342 L208.319456,70.7892414 L187.231915,70.7892414 C184.018311,65.2788826 178.109724,61.5281342 171.275027,61.5281342 C161.041504,61.5281342 152.752813,69.8168251 152.752813,80.0503486 C152.752813,90.2746109 161.041504,98.5725629 171.275027,98.5725629 C178.109724,98.5725629 184.018311,94.8218145 187.231915,89.3114558 L208.319456,89.3114558 L208.319456,108.315248 C190.158425,110.019291 174.090404,116.640983 162.467714,126.355884 L272.693412,126.355884 Z" id="Shape" transform="translate(217.580563, 93.942009) rotate(-270.000000) translate(-217.580563, -93.942009) "></path>
        </g>
        <path class="shed-icon-color" d="M121.341322,212.068263 C117.287763,207.56619 114.749,201.676258 114.749,195.143174 C114.749,181.120737 126.114197,169.75554 140.136634,169.75554 C154.15907,169.75554 165.524268,181.120737 165.524268,195.143174 C165.524268,201.676258 162.993967,207.56619 158.940408,212.068263 L178.878163,212.068263 C181.154588,206.880723 182.449357,201.168506 182.449357,195.143174 C182.449357,171.778088 163.510182,152.830451 140.136634,152.830451 C116.771548,152.830451 97.8239106,171.778088 97.8239106,195.143174 C97.8239106,201.168506 99.1271424,206.880723 101.395104,212.068263 L121.341322,212.068263 L121.341322,212.068263 Z" id="Shape" fill="#000000" transform="translate(140.136634, 182.449357) rotate(-180.000000) translate(-140.136634, -182.449357) "></path>
    </g>
</svg>