
<svg width="250px" height="250px" viewBox="-5185 -5094 250 250" version="1.1" xmlns="http://www.w3.org/2000/svg" xmlns:xlink="http://www.w3.org/1999/xlink">
    <!-- Generator: Sketch 3.8.3 (29802) - http://www.bohemiancoding.com/sketch -->
    <desc>Created with Sketch.</desc>
    <defs>
        <rect id="path-1" x="0" y="0" width="250" height="250"></rect>
        <rect id="path-3" x="0" y="0" width="250" height="250"></rect>
    </defs>
    <g id="ladder" stroke="none" stroke-width="1" fill="none" fill-rule="evenodd" transform="translate(-5185.000000, -5094.000000)">
        <g id="Layer_1">
            <g id="Group">
                <g id="Clipped">
                    <mask id="mask-2" fill="white">
                        <use xlink:href="#path-1"></use>
                    </mask>
                    <g id="SVGID_1_"></g>
                    <path class="shed-icon-color" d="M243.776786,0 L225.964286,0 C221.0625,0 215.589286,3.74107143 213.794643,8.3125 L122.321429,241.6875 C120.526786,246.258929 123.071429,250 127.973214,250 L145.785714,250 C150.6875,250 156.160714,246.258929 157.955357,241.6875 L249.428571,8.3125 C251.223214,3.74107143 248.678571,0 243.776786,0" id="Shape" fill="#231F20" mask="url(#mask-2)"></path>
                </g>
                <g id="Clipped">
                    <mask id="mask-4" fill="white">
                        <use xlink:href="#path-3"></use>
                    </mask>
                    <g id="SVGID_1_"></g>
                    <path class="shed-icon-color" d="M50.4464286,205.357143 L57.4464286,187.5 L133.991071,187.5 L140.991071,169.642857 L64.4464286,169.642857 L71.4464286,151.785714 L147.982143,151.785714 L154.982143,133.928571 L78.4464286,133.928571 L85.4375,116.071429 L161.982143,116.071429 L168.982143,98.2142857 L92.4375,98.2142857 L99.4375,80.3571429 L175.982143,80.3571429 L182.982143,62.5 L106.4375,62.5 L113.4375,44.6428571 L189.982143,44.6428571 L196.982143,26.7857143 L120.446429,26.7857143 L127.678571,8.3125 C129.473214,3.74107143 126.928571,0 122.026786,0 L104.214286,0 C99.3125,0 93.8392857,3.74107143 92.0446429,8.3125 L0.571428571,241.6875 C-1.20535714,246.258929 1.32142857,250 6.22321429,250 L24.0357143,250 C28.9375,250 34.4107143,246.258929 36.2053571,241.6875 L43.4464286,223.214286 L119.991071,223.214286 L126.991071,205.357143 L50.4464286,205.357143 L50.4464286,205.357143 Z" id="Shape" fill="#231F20" mask="url(#mask-4)"></path>
                </g>
            </g>
        </g>
    </g>
</svg>