
<svg width="250px" height="250px" viewBox="-3852 -2916 250 250" version="1.1" xmlns="http://www.w3.org/2000/svg" xmlns:xlink="http://www.w3.org/1999/xlink">
    <!-- Generator: Sketch 3.8.3 (29802) - http://www.bohemiancoding.com/sketch -->
    <desc>Created with Sketch.</desc>
    <defs>
        <rect id="path-1" x="0" y="0" width="250" height="250"></rect>
        <rect id="path-3" x="0" y="0" width="250" height="250"></rect>
    </defs>
    <g id="machete" stroke="none" stroke-width="1" fill="none" fill-rule="evenodd" transform="translate(-3852.000000, -2916.000000)">
        <g id="Layer_1">
            <g id="Group">
                <g id="Clipped">
                    <mask id="mask-2" fill="white">
                        <use xlink:href="#path-1"></use>
                    </mask>
                    <g id="SVGID_1_"></g>
                    <path class="shed-icon-color" d="M237.3125,0 L65.7678571,164.142857 L90.2946429,187.366071 C90.2946429,187.366071 223.357143,99.8928571 225.571429,98.2142857 C272.553571,62.5 237.3125,0 237.3125,0" id="Shape" fill="#231F20" mask="url(#mask-2)"></path>
                </g>
                <g id="Clipped">
                    <mask id="mask-4" fill="white">
                        <use xlink:href="#path-3"></use>
                    </mask>
                    <g id="SVGID_1_"></g>
                    <path class="shed-icon-color" d="M2.88392857,223.482143 C-0.964285714,227.133929 -0.955357143,233.098214 2.90178571,236.741071 L14.0267857,247.276786 C17.875,250.919643 24.1517857,250.910714 27.9821429,247.258929 L84.1071429,193.821429 L59.0089286,170.026786 L2.88392857,223.482143 L2.88392857,223.482143 Z M20.5892857,235.142857 C17.8571429,235.151786 15.6517857,233.0625 15.6517857,230.464286 C15.6517857,227.875 17.8392857,225.785714 20.5803571,225.776786 C23.3035714,225.776786 25.5089286,227.866071 25.5089286,230.455357 C25.5089286,233.044643 23.3125,235.142857 20.5892857,235.142857 L20.5892857,235.142857 Z M40.2946429,216.366071 C37.5803571,216.366071 35.3660714,214.285714 35.3660714,211.696429 C35.3571429,209.089286 37.5625,206.991071 40.2857143,206.991071 C43.0089286,206.991071 45.2232143,209.071429 45.2321429,211.669643 C45.2321429,214.276786 43.0178571,216.366071 40.2946429,216.366071 L40.2946429,216.366071 Z M64.9375,192.901786 C64.9464286,195.491071 62.7410714,197.580357 60.0178571,197.589286 C57.2857143,197.589286 55.0803571,195.5 55.0714286,192.910714 C55.0714286,190.3125 57.2857143,188.232143 60.0089286,188.232143 C62.7321429,188.232143 64.9375,190.3125 64.9375,192.901786 L64.9375,192.901786 Z" id="Shape" fill="#231F20" mask="url(#mask-4)"></path>
                </g>
            </g>
        </g>
    </g>
</svg>