
<svg width="89px" height="251px" viewBox="-5060 -2913 89 251" version="1.1" xmlns="http://www.w3.org/2000/svg" xmlns:xlink="http://www.w3.org/1999/xlink">
    <!-- Generator: Sketch 3.8.3 (29802) - http://www.bohemiancoding.com/sketch -->
    <desc>Created with Sketch.</desc>
    <defs>
        <rect id="path-1" x="70.5882353" y="13.2352941" width="7.35294118" height="70.5882353" rx="3.67647059"></rect>
        <mask id="mask-2" maskContentUnits="userSpaceOnUse" maskUnits="objectBoundingBox" x="0" y="0" width="7.35294118" height="70.5882353" fill="white">
            <use xlink:href="#path-1"></use>
        </mask>
        <rect id="path-3" x="55.8823529" y="20.5882353" width="7.35294118" height="63.2352941" rx="3.67647059"></rect>
        <mask id="mask-4" maskContentUnits="userSpaceOnUse" maskUnits="objectBoundingBox" x="0" y="0" width="7.35294118" height="63.2352941" fill="white">
            <use xlink:href="#path-3"></use>
        </mask>
        <rect id="path-5" x="41.1764706" y="27.9411765" width="7.35294118" height="55.8823529" rx="3.67647059"></rect>
        <mask id="mask-6" maskContentUnits="userSpaceOnUse" maskUnits="objectBoundingBox" x="0" y="0" width="7.35294118" height="55.8823529" fill="white">
            <use xlink:href="#path-5"></use>
        </mask>
        <rect id="path-7" x="26.4705882" y="36.0294118" width="7.35294118" height="47.7941176" rx="3.67647059"></rect>
        <mask id="mask-8" maskContentUnits="userSpaceOnUse" maskUnits="objectBoundingBox" x="0" y="0" width="7.35294118" height="47.7941176" fill="white">
            <use xlink:href="#path-7"></use>
        </mask>
        <rect id="path-9" x="11.7647059" y="51.4705882" width="7.35294118" height="32.3529412" rx="3.67647059"></rect>
        <mask id="mask-10" maskContentUnits="userSpaceOnUse" maskUnits="objectBoundingBox" x="0" y="0" width="7.35294118" height="32.3529412" fill="white">
            <use xlink:href="#path-9"></use>
        </mask>
    </defs>
    <g id="paint-brush" stroke="none" stroke-width="1" fill="none" fill-rule="evenodd" transform="translate(-5060.000000, -2913.000000)">
        <path class="shed-icon-color" d="M19.4327731,122.810045 L29.1491597,122.810045 L29.1491597,236.372505 C29.1491597,243.894882 35.6785714,250 43.7237395,250 C51.7689076,250 58.2983193,243.894882 58.2983193,236.372505 L58.2983193,122.810045 L68.0147059,122.810045 C78.751313,122.810045 87.447479,114.678972 87.447479,104.640051 L87.447479,59.5588235 C87.447479,59.5588235 90.3503207,7.3779455 87.4474806,0.970817994 C86.4214631,-1.29380035 74.3806331,3.61003051 73.0438289,0.970818015 C71.1997788,-2.66983465 64.1144063,8.06781907 61.7402918,4.21788826 C57.5350293,-2.60148375 55.4342788,13.0792003 49.8750574,8.14137145 C46.3037568,4.96925975 43.1525483,15.7855403 39.5349839,13.6704385 C33.9247042,10.3902447 30.8807301,18.2097452 26.1991613,17.0395795 C22.8159591,16.1939426 10.0485409,40.2128332 10.0485409,40.2128332 L0,59.5588235 L0,104.640051 C0,114.678972 8.69616597,122.810045 19.4327731,122.810045 Z" id="Shape" fill="#231F20"></path>
        <use class="shed-icon-color" id="Rectangle-69" stroke="#979797" mask="url(#mask-2)" stroke-width="2" fill="#FFFFFF" xlink:href="#path-1"></use>
        <use class="shed-icon-color" id="Rectangle-69-Copy" stroke="#979797" mask="url(#mask-4)" stroke-width="2" fill="#FFFFFF" xlink:href="#path-3"></use>
        <use class="shed-icon-color" id="Rectangle-69-Copy-2" stroke="#979797" mask="url(#mask-6)" stroke-width="2" fill="#FFFFFF" xlink:href="#path-5"></use>
        <use class="shed-icon-color" id="Rectangle-69-Copy-3" stroke="#979797" mask="url(#mask-8)" stroke-width="2" fill="#FFFFFF" xlink:href="#path-7"></use>
        <use class="shed-icon-color" id="Rectangle-69-Copy-4" stroke="#979797" mask="url(#mask-10)" stroke-width="2" fill="#FFFFFF" xlink:href="#path-9"></use>
    </g>
</svg>