
<svg width="86px" height="357px" viewBox="-5053 -2961 86 357" version="1.1" xmlns="http://www.w3.org/2000/svg" xmlns:xlink="http://www.w3.org/1999/xlink">
    <!-- Generator: Sketch 3.8.3 (29802) - http://www.bohemiancoding.com/sketch -->
    <desc>Created with Sketch.</desc>
    <defs></defs>
    <path class="shed-icon-color" d="M-4979.64956,-2950.67578 L-4996.17969,-2960.92578 C-4996.17969,-2955.32382 -5005.25524,-2954.81386 -5010.0067,-2945.57585 C-5013.80184,-2938.19715 -5016.32052,-2933.04687 -5020.78516,-2933.04687 C-5030.83944,-2933.04687 -5028.22098,-2927.52513 -5028.22098,-2937.60156 L-5039.51172,-2933.04687 L-5052.5067,-2945.57585 L-5052.5067,-2829.96461 C-5052.5067,-2816.5172 -5041.6267,-2805.62541 -5028.22098,-2805.62541 L-5028.22098,-2623.08135 C-5028.22098,-2613.00492 -5020.06098,-2604.82695 -5010.0067,-2604.82695 C-4999.95241,-2604.82695 -4991.79241,-2613.00492 -4991.79241,-2623.08135 L-4991.79241,-2805.62541 C-4978.37455,-2805.62541 -4967.5067,-2816.5172 -4967.5067,-2829.96461 L-4967.5067,-2945.57585 L-4979.64955,-2945.57585 L-4979.64956,-2950.67578 Z" id="post-hold-digger-copy" stroke="none" fill="#000000" fill-rule="evenodd"></path>
</svg>