
<svg width="232px" height="250px" viewBox="-3864 -4392 232 250" version="1.1" xmlns="http://www.w3.org/2000/svg" xmlns:xlink="http://www.w3.org/1999/xlink">
    <!-- Generator: Sketch 3.8.3 (29802) - http://www.bohemiancoding.com/sketch -->
    <desc>Created with Sketch.</desc>
    <defs></defs>
    <g id="Group-2" stroke="none" stroke-width="1" fill="none" fill-rule="evenodd" transform="translate(-3863.000000, -4392.000000)">
        <path class="shed-icon-color" d="M4.80944131,209.267062 C-3.4407626,220.737983 -0.810664035,236.878482 10.6602571,245.137915 C22.1311782,253.388118 38.2716777,250.75802 46.5311101,239.287099 L151.98422,92.7859947 L110.262551,62.7659574 L4.80944131,209.267062 L4.80944131,209.267062 Z" id="Shape" fill="#000000"></path>
        <rect class="shed-icon-color" id="Rectangle-69" fill="#000000" transform="translate(145.533701, 57.960854) rotate(36.000000) translate(-145.533701, -57.960854) " x="118.406041" y="46.7906408" width="54.2553191" height="22.3404255" rx="8"></rect>
        <path class="shed-icon-color" d="M121.224235,78.5501785 C186.14707,78.5501785 236.753906,130.956872 236.753906,110.686847 C236.753906,90.4168217 191.225655,63.6073549 126.30282,63.6073549 C61.3799855,63.6073549 8.7496292,80.0394572 8.7496292,100.309483 C27.3456791,112.926746 73.8229227,78.5501785 121.224235,78.5501785 Z" id="Oval-4" fill="#000000" transform="translate(121.224238, 89.477623) rotate(36.000000) translate(-121.224238, -89.477623) "></path>
    </g>
</svg>