
<svg width="250px" height="250px" viewBox="-5260 -5764 250 250" version="1.1" xmlns="http://www.w3.org/2000/svg" xmlns:xlink="http://www.w3.org/1999/xlink">
    <!-- Generator: Sketch 3.8.3 (29802) - http://www.bohemiancoding.com/sketch -->
    <desc>Created with Sketch.</desc>
    <defs>
        <rect id="path-1" x="0" y="0" width="250" height="250"></rect>
    </defs>
    <g id="pitchfork" stroke="none" stroke-width="1" fill="none" fill-rule="evenodd" transform="translate(-5260.000000, -5764.000000)">
        <g id="Layer_1">
            <g id="Clipped">
                <mask id="mask-2" fill="white">
                    <use xlink:href="#path-1"></use>
                </mask>
                <g id="SVGID_1_"></g>
                <path class="shed-icon-color" class="shed-icon-color" d="M2.61607143,152.6875 L46.8125,108.491071 C67.7053571,87.5982143 101.678571,87.5982143 122.571429,108.491071 L122.580357,108.508929 L227.142857,3.92857143 C232.366071,-1.30357143 240.857143,-1.30357143 246.080357,3.92857143 C251.303571,9.15178571 251.303571,17.6339286 246.080357,22.8660714 L141.517857,127.446429 C162.392857,148.321429 162.392857,182.303571 141.517857,203.1875 L97.3125,247.383929 C95.5714286,249.133929 93.2857143,250 91,250 C88.7142857,250 86.4375,249.133929 84.6875,247.383929 C81.2053571,243.901786 81.2053571,238.25 84.6875,234.758929 L128.892857,190.5625 C142.8125,176.642857 142.8125,153.991071 128.892857,140.0625 L125.723214,136.892857 L56.2767857,206.348214 C54.5267857,208.089286 52.25,208.964286 49.9642857,208.964286 C47.6785714,208.964286 45.3928571,208.089286 43.6517857,206.348214 C40.1607143,202.857143 40.1607143,197.205357 43.6517857,193.723214 L113.098214,124.267857 L109.9375,121.116071 C96.0267857,107.196429 73.3571429,107.196429 59.4375,121.116071 L15.2410714,165.3125 C11.75,168.803571 6.10714286,168.803571 2.61607143,165.3125 C-0.875,161.821429 -0.875,156.178571 2.61607143,152.6875" id="Shape" fill="#efefef" mask="url(#mask-2)"></path>
            </g>
        </g>
    </g>
</svg>