
<svg width="245px" height="338px" viewBox="-5825 -3712 245 338" version="1.1" xmlns="http://www.w3.org/2000/svg" xmlns:xlink="http://www.w3.org/1999/xlink">
    <!-- Generator: Sketch 3.8.3 (29802) - http://www.bohemiancoding.com/sketch -->
    <desc>Created with Sketch.</desc>
    <defs></defs>
    <path class="shed-icon-color" d="M-5671.73799,-3713.55427 L-5683.88085,-3616.19744 C-5683.88085,-3606.12101 -5692.04085,-3597.94304 -5702.09513,-3597.94304 C-5712.14942,-3597.94304 -5720.30942,-3606.12101 -5720.30942,-3616.19744 L-5732.45228,-3713.55427 L-5744.59513,-3713.55427 L-5744.59513,-3597.94304 C-5744.59513,-3584.49563 -5733.71513,-3573.60383 -5720.30942,-3573.60383 L-5720.30942,-3391.05978 C-5720.30942,-3380.98335 -5712.14942,-3372.80537 -5702.09513,-3372.80537 C-5692.04085,-3372.80537 -5683.88085,-3380.98335 -5683.88085,-3391.05978 L-5683.88085,-3573.60383 C-5670.46299,-3573.60383 -5659.59513,-3584.49563 -5659.59513,-3597.94304 L-5659.59513,-3713.55427 L-5671.73799,-3713.55427 L-5671.73799,-3713.55427 Z" id="post-hold-digger" stroke="none" fill="#000000" fill-rule="evenodd" transform="translate(-5702.095133, -3543.179822) rotate(-150.000000) translate(5702.095133, 3543.179822) "></path>
</svg>