
<svg width="330px" height="330px" viewBox="-5815 -4378 330 330" version="1.1" xmlns="http://www.w3.org/2000/svg" xmlns:xlink="http://www.w3.org/1999/xlink">
    <!-- Generator: Sketch 3.8.3 (29802) - http://www.bohemiancoding.com/sketch -->
    <desc>Created with Sketch.</desc>
    <defs></defs>
    <g id="Group-5" stroke="none" stroke-width="1" fill="none" fill-rule="evenodd" transform="translate(-5649.365440, -4211.365440) rotate(-315.000000) translate(5649.365440, 4211.365440) translate(-5745.365440, -4345.365440)">
        <g id="rake" transform="translate(-0.000000, -0.000000)" fill="#000000">
            <g id="Layer_1" transform="translate(-0.000000, -0.000000)">
                <rect class="shed-icon-color" id="Rectangle-30" transform="translate(96.162499, 108.936535) scale(-1, 1) translate(-96.162499, -108.936535) " x="78.9074997" y="0.828427125" width="34.5099983" height="216.216216" rx="14"></rect>
                <rect class="shed-icon-color" id="Rectangle-30-Copy-2" transform="translate(17.601854, 245.551443) scale(-1, 1) translate(-17.601854, -245.551443) " x="5.65685425" y="224.71811" width="23.8899994" height="41.6666667" rx="11.9449997"></rect>
                <rect class="shed-icon-color" id="Rectangle-30-Copy-3" transform="translate(178.009268, 246.965657) scale(-1, 1) translate(-178.009268, -246.965657) " x="166.064268" y="226.132323" width="23.8899994" height="41.6666667" rx="11.9449997"></rect>
                <rect class="shed-icon-color" id="Rectangle-30-Copy-4" transform="translate(138.882941, 246.965657) scale(-1, 1) translate(-138.882941, -246.965657) " x="126.937941" y="226.132323" width="23.8899994" height="41.6666667" rx="11.9449997"></rect>
                <rect class="shed-icon-color" id="Rectangle-30-Copy-5" transform="translate(97.661517, 244.844336) scale(-1, 1) translate(-97.661517, -244.844336) " x="85.7165175" y="224.011003" width="23.8899994" height="41.6666667" rx="11.9449997"></rect>
                <rect class="shed-icon-color" id="Rectangle-30-Copy-6" transform="translate(57.985239, 244.844336) scale(-1, 1) translate(-57.985239, -244.844336) " x="46.0402393" y="224.011003" width="23.8899994" height="41.6666667" rx="11.9449997"></rect>
                <rect class="shed-icon-color" id="Rectangle-30-Copy" transform="translate(95.760139, 209.711712) rotate(-270.000000) translate(-95.760139, -209.711712) " x="85.6250041" y="113.951572" width="20.2702703" height="191.520279" rx="10.1351351"></rect>
            </g>
        </g>
    </g>
</svg>