
<svg width="250px" height="250px" viewBox="25 25 250 250" version="1.1" xmlns="http://www.w3.org/2000/svg" xmlns:xlink="http://www.w3.org/1999/xlink">
    <!-- Generator: Sketch 3.8.3 (29802) - http://www.bohemiancoding.com/sketch -->
    <desc>Created with Sketch.</desc>
    <defs>
        <rect id="path-1" x="0" y="0" width="250" height="250"></rect>
        <rect id="path-3" x="0" y="0" width="250" height="250"></rect>
    </defs>
    <g id="saw" stroke="none" stroke-width="1" fill="none" fill-rule="evenodd" transform="translate(25.000000, 25.000000)">
        <g id="Layer_1">
            <g id="Group">
                <g id="Clipped">
                    <mask id="mask-2" fill="white">
                        <use xlink:href="#path-1"></use>
                    </mask>
                    <g id="SVGID_1_"></g>
                    <path class="shed-icon-color" d="M246.491071,57.9196429 C242.392857,54.5267857 236.285714,55.125 232.919643,59.25 L232.910714,59.25 L180.5625,15.8571429 C183.9375,11.7410714 183.339286,5.59821429 179.241071,2.20535714 C175.142857,-1.17857143 169.035714,-0.580357143 165.660714,3.53571429 L122.767857,55.9821429 L190.017857,111.6875 C198.214286,118.464286 210.4375,117.267857 217.178571,109.026786 L247.821429,71.5714286 C251.1875,67.4464286 250.589286,61.3035714 246.491071,57.9196429 M214.526786,81.7232143 L208.401786,89.2142857 C205.026786,93.3392857 198.919643,93.9375 194.821429,90.5446429 L157.375,59.4821429 C153.276786,56.0892857 152.678571,49.9464286 156.053571,45.8303571 L162.178571,38.3392857 C165.553571,34.2142857 171.660714,33.6160714 175.758929,37.0089286 L213.205357,68.0714286 C217.303571,71.4553571 217.901786,77.6071429 214.526786,81.7232143" id="Shape" fill="#efefef" mask="url(#mask-2)"></path>
                </g>
                <g id="Clipped">
                    <mask id="mask-4" fill="white">
                        <use xlink:href="#path-3"></use>
                    </mask>
                    <g id="SVGID_1_"></g>
                    <polygon id="Shape" class="shed-icon-color" fill="#efefef" mask="url(#mask-4)" points="116.696429 62.5446429 0 205.366071 44.6428571 250.008929 71.4285714 250.008929 71.4285714 223.223214 98.2142857 223.223214 98.2142857 196.4375 125 196.4375 125 169.651786 151.785714 169.651786 151.785714 142.866071 178.571429 142.866071 178.571429 113.803571 117.071429 62.8571429"></polygon>
                </g>
            </g>
        </g>
    </g>
</svg>