
<svg width="251px" height="253px" viewBox="-4514 -3683 251 253" version="1.1" xmlns="http://www.w3.org/2000/svg" xmlns:xlink="http://www.w3.org/1999/xlink">
    <!-- Generator: Sketch 3.8.3 (29802) - http://www.bohemiancoding.com/sketch -->
    <desc>Created with Sketch.</desc>
    <defs></defs>
    <g id="screwdriver" stroke="none" stroke-width="1" fill="none" fill-rule="evenodd" transform="translate(-4513.000000, -3683.000000)">
        <path class="shed-icon-color" d="M38.3990381,139.548862 L54.892362,100.255677 L103.711965,100.255677 L122.128254,140.903687 L122.128254,219.545992 C122.128254,232.801015 111.374887,243.546335 98.1348214,243.546335 L62.392471,243.546335 C49.1412639,243.546335 38.3990381,232.808481 38.3990381,219.540294 L38.3990381,139.548862 Z" id="Rectangle-92" fill="#000000" transform="translate(80.263646, 171.901006) rotate(-315.000000) translate(-80.263646, -171.901006) "></path>
        <path class="shed-icon-color" d="M170.400084,46.2752504 L155.975961,33.6570124 L170.400084,-7.20750751 L185.864465,-7.20750751 L199.888015,33.6570124 L185.864466,46.2752504 L190.670218,129.971586 C191.365169,142.07476 182.090208,151.886321 169.965374,151.886321 L187.369148,151.886321 C175.239228,151.886321 165.870214,142.069176 166.443039,129.955554 L170.400084,46.2752504 Z" id="Rectangle-92-Copy-4" fill="#000000" transform="translate(177.931988, 72.339407) rotate(-315.000000) translate(-177.931988, -72.339407) "></path>
        <rect class="shed-icon-color" id="Rectangle-92-Copy" fill="#FFFFFF" transform="translate(49.208968, 173.318232) rotate(-315.000000) translate(-49.208968, -173.318232) " x="43.6393703" y="135.329462" width="11.1391956" height="75.9775393" rx="5.56959778"></rect>
        <rect class="shed-icon-color" id="Rectangle-92-Copy-2" fill="#FFFFFF" transform="translate(63.460750, 188.757662) rotate(-315.000000) translate(-63.460750, -188.757662) " x="57.8911517" y="150.768892" width="11.1391956" height="75.9775393" rx="5.56959778"></rect>
        <rect class="shed-icon-color" id="Rectangle-92-Copy-3" fill="#FFFFFF" transform="translate(79.494004, 203.603267) rotate(-315.000000) translate(-79.494004, -203.603267) " x="73.9244059" y="165.614498" width="11.1391956" height="75.9775393" rx="5.56959778"></rect>
    </g>
</svg>