
<svg width="250px" height="205px" viewBox="-4532 -4324 250 205" version="1.1" xmlns="http://www.w3.org/2000/svg" xmlns:xlink="http://www.w3.org/1999/xlink">
    <!-- Generator: Sketch 3.8.3 (29802) - http://www.bohemiancoding.com/sketch -->
    <desc>Created with Sketch.</desc>
    <defs></defs>
    <g id="Group-19" stroke="none" stroke-width="1" fill="none" fill-rule="evenodd" transform="translate(-4532.000000, -4324.000000)">
        <g id="Group-4" transform="translate(0.000000, 55.000000)" fill="#000000">
            <rect class="shed-icon-color" id="Rectangle-22" x="54" y="0" width="150" height="150" rx="32"></rect>
            <rect class="shed-icon-color" id="Rectangle-27" x="0" y="5" width="250" height="50" rx="20"></rect>
        </g>
        <polygon id="Shape-Copy-3" fill="#FFFFFF" points="113.375605 8.84538026 97.5448448 8.84538026 89.6294649 22.5397752 75.905535 30.4650002 75.905535 46.2859151 68 60.009845 75.905535 73.7140849 75.905535 89.5251548 89.6294649 97.4503798 97.5448448 111.144775 113.375605 111.144775 127.07 119.07 140.784085 111.144775 156.62469 111.144775 164.530225 97.4503798 178.244309 89.5251548 178.244309 73.7140849 186.139999 60.01969 178.244309 46.2859151 178.244309 30.4650002 164.530225 22.5397752 156.62469 8.84538026 140.784085 8.84538026 127.07 0.930000305"></polygon>
        <polygon class="shed-icon-color" id="Shape" fill="#000000" points="115.151786 12.105714 100.794643 12.105714 93.6160714 24.5253568 81.1696429 31.7128568 81.1696429 46.0610711 74 58.5074997 81.1696429 70.9360711 81.1696429 85.2753568 93.6160714 92.4628568 100.794643 104.8825 115.151786 104.8825 127.571429 112.07 140.008929 104.8825 154.375 104.8825 161.544643 92.4628568 173.982143 85.2753568 173.982143 70.9360711 181.142857 58.5164283 181.142857 58.4896426 173.982143 46.0610711 173.982143 31.7128568 161.544643 24.5253568 154.375 12.105714 140.008929 12.105714 127.571429 4.92714255"></polygon>
        <polygon id="Shape-Copy-2" fill="#FFFFFF" points="117.469021 20.7655225 105.792262 20.7655225 99.9538816 30.8665008 89.8311183 36.7121424 89.8311183 48.3816407 84 58.5044039 89.8311183 68.6126438 89.8311183 80.2748804 99.9538816 86.1205221 105.792262 96.2215003 117.469021 96.2215003 127.57 102.067142 137.685501 96.2215003 149.369523 96.2215003 155.200641 86.1205221 165.316143 80.2748804 165.316143 68.6126438 171.139999 58.5116656 171.139999 58.4898806 165.316143 48.3816407 165.316143 36.7121424 155.200641 30.8665008 149.369523 20.7655225 137.685501 20.7655225 127.57 14.9271426"></polygon>
        <polygon class="shed-icon-color" id="Shape-Copy-4" fill="#000000" points="118.860021 26.03438 108.791262 26.03438 103.756882 34.7443582 95.0281183 39.7849998 95.0281183 49.8474981 90 58.5762614 95.0281183 67.2925013 95.0281183 77.3487379 103.756882 82.3893795 108.791262 91.0993578 118.860021 91.0993578 127.57 96.1399994 136.292501 91.0993578 146.367523 91.0993578 151.395641 82.3893795 160.118143 77.3487379 160.118143 67.2925013 165.139999 58.582523 165.139999 58.563738 160.118143 49.8474981 160.118143 39.7849998 151.395641 34.7443582 146.367523 26.03438 136.292501 26.03438 127.57 21"></polygon>
    </g>
</svg>