
<svg width="251px" height="252px" viewBox="-4339 -2271 251 252" version="1.1" xmlns="http://www.w3.org/2000/svg" xmlns:xlink="http://www.w3.org/1999/xlink">
    <!-- Generator: Sketch 3.8.3 (29802) - http://www.bohemiancoding.com/sketch -->
    <desc>Created with Sketch.</desc>
    <defs></defs>
    <g id="users" stroke="none" stroke-width="1" fill="none" fill-rule="evenodd" transform="translate(-4339.000000, -2270.848073)">
        <path class="shed-icon-color" d="M205.357143,125 C214.285714,124.991071 232.142857,116.696429 232.142857,98.2142857 L232.142857,80.3571429 C232.142857,65.5714286 220.142857,53.5714286 205.357143,53.5714286 C190.571429,53.5714286 178.571429,65.5714286 178.571429,80.3571429 L178.571429,98.2142857 C178.571429,116.696429 196.428571,125 205.357143,125" id="Combined-Shape" fill="#231F20"></path>
        <path class="shed-icon-color" d="M126,133.928571 C49.4732143,133.928571 36.7142857,199.401786 36.7142857,232.142857 L36.7142857,250 L215.285714,250 L215.285714,232.142857 C215.285714,199.401786 202.535714,133.928571 126,133.928571" id="Shape" fill="#231F20"></path>
        <path class="shed-icon-color" d="M125,125 C139.875,125 169.642857,111.169643 169.642857,80.3571429 L169.642857,44.6428571 C169.642857,20 149.651786,0 125,0 C100.348214,0 80.3571429,20 80.3571429,44.6428571 L80.3571429,80.3571429 C80.3571429,111.169643 110.125,124.982143 125,125" id="Shape" fill="#231F20"></path>
        <path class="shed-icon-color" d="M44.6428571,125 C53.5714286,125 71.4285714,116.696429 71.4285714,98.2142857 L71.4285714,80.3571429 C71.4285714,65.5714286 59.4285714,53.5714286 44.6428571,53.5714286 C29.8571429,53.5714286 17.8571429,65.5714286 17.8571429,80.3571429 L17.8571429,98.2142857 C17.8571429,116.696429 35.7142857,124.991071 44.6428571,125" id="Shape" fill="#231F20"></path>
        <path class="shed-icon-color" d="M205.357143,133.928571 C195.214286,133.928571 187.375,136.473214 181.241071,140.491071 C191.053571,147.035714 199.375,155.526786 205.928571,166.035714 C210.294643,173.035714 213.473214,180.3125 215.946429,187.5 L250,187.5 C250,169.642857 243.616071,133.928571 205.357143,133.928571" id="Shape" fill="#231F20"></path>
        <path class="shed-icon-color" d="M68.7589286,140.491071 C62.625,136.482143 54.7767857,133.928571 44.6428571,133.928571 C6.38392857,133.928571 0,169.642857 0,187.5 L34.0535714,187.5 C36.5267857,180.3125 39.7142857,173.035714 44.0803571,166.026786 C50.6339286,155.526786 58.9464286,147.026786 68.7589286,140.491071" id="Shape" fill="#231F20"></path>
    </g>
</svg>