
<svg width="295px" height="216px" viewBox="-5187 -3692 295 216" version="1.1" xmlns="http://www.w3.org/2000/svg" xmlns:xlink="http://www.w3.org/1999/xlink">
    <!-- Generator: Sketch 3.8.3 (29802) - http://www.bohemiancoding.com/sketch -->
    <desc>Created with Sketch.</desc>
    <defs></defs>
    <g id="Group-3" stroke="none" stroke-width="1" fill="none" fill-rule="evenodd" transform="translate(-5187.000000, -3692.000000)">
        <g id="Clipped" transform="translate(8.000000, 0.000000)" fill="#000000">
            <path class="shed-icon-color" d="M257.976571,10.5904495 L0.196816483,10.5904495 C0.196816483,47.4023523 22.1396942,79.4437079 54.5826939,96.3045594 L39.0005457,125.755721 C50.4842856,127.157377 60.7221094,132.485307 68.3451487,140.395235 L85.9846978,107.058783 C92.6978905,108.280108 99.6487909,108.952247 106.755431,108.952247 C113.862071,108.952247 120.804774,108.280108 127.526164,107.058783 L158.878987,166.329963 L81.4272678,166.329963 C81.8780927,169.002125 82.1649813,171.723468 82.1649813,174.526779 C82.1649813,177.33009 81.8780927,180.051433 81.4272678,182.723596 L167.551219,182.723596 L184.338299,214.453472 L213.314045,199.117229 L158.928168,96.3045594 C165.710223,92.778165 172.033423,88.5891001 177.793237,83.8322379 C182.106931,80.2696833 281.702071,8.78465134 285.339852,4.62500019 C297.256679,-9.00139552 213.314045,15.0640847 213.314045,10.5904495 L278.500009,10.5904495" id="Shape"></path>
        </g>
        <g id="Clipped" transform="translate(0.918043, 133.000000)" fill="#231F20">
            <path class="shed-icon-color" d="M40.9840824,0.5426967 C18.3444753,0.5426967 0,18.887172 0,41.5267791 C0,64.1663862 18.3444753,82.5108615 40.9840824,82.5108615 C63.6236895,82.5108615 81.9681648,64.1663862 81.9681648,41.5267791 C81.9681648,18.887172 63.6236895,0.5426967 40.9840824,0.5426967 M40.9840824,57.9204121 C31.934797,57.9204121 24.5904495,50.5678677 24.5904495,41.5267791 C24.5904495,32.4938874 31.934797,25.1331462 40.9840824,25.1331462 C50.0333678,25.1331462 57.3777154,32.4938874 57.3777154,41.5267791 C57.3777154,50.5678677 50.0333678,57.9204121 40.9840824,57.9204121" id="Shape"></path>
        </g>
    </g>
</svg>