
<svg width="250px" height="249px" viewBox="-5823 -5033 250 249" version="1.1" xmlns="http://www.w3.org/2000/svg" xmlns:xlink="http://www.w3.org/1999/xlink">
    <!-- Generator: Sketch 3.8.3 (29802) - http://www.bohemiancoding.com/sketch -->
    <desc>Created with Sketch.</desc>
    <defs></defs>
    <g id="Group-2" stroke="none" stroke-width="1" fill="none" fill-rule="evenodd" transform="translate(-5823.000000, -5033.000000)">
        <path class="shed-icon-color" d="M242.238208,33.6439488 C240.813679,33.3538544 239.330189,33.7948922 238.294811,34.827911 L204.75,69.0354582 C201.367925,72.4222507 189.997642,69.948194 182.34434,66.962345 C179.353774,59.3090431 176.882075,47.9364016 180.254717,44.5566846 L214.629717,11.1746091 C215.662736,10.1439488 216.110849,8.66517518 215.813679,7.24064688 C215.518868,5.81140159 214.516509,4.62979782 213.169811,4.09206197 C191.754717,-4.42444746 167.384434,0.596778952 151.09434,16.8797978 C136.712264,31.2618733 131.382075,51.4293261 135.603774,70.1769676 C135.061321,79.4694205 126.613208,90.3585714 122.245283,94.7996091 L88.6792453,128.292534 C97.2783019,140.717062 108.198113,151.403383 120.818396,159.733571 L152.792453,127.818477 C157.275943,123.401024 169.384434,115.073194 178.608491,114.118005 C180,114.207628 182.879717,114.398666 183.518868,114.540175 L183.514151,114.48593 C201.5,117.099137 219.667453,111.226496 232.589623,98.3208356 C248.879717,82.0566846 253.910377,57.6958356 245.391509,36.2948922 C244.853774,34.9364016 243.669811,33.9411186 242.238208,33.6439488 L242.238208,33.6439488 Z" id="Shape" fill="#231F20"></path>
        <path class="shed-icon-color" d="M154.493513,121.781249 C153.068985,121.491154 151.585494,121.932192 150.550117,122.965211 L117.005306,157.172758 C113.62323,160.559551 102.252947,158.085494 94.5996451,155.099645 C91.6090791,147.446343 89.137381,136.073702 92.5100225,132.693985 L126.885022,99.3119092 C127.918041,98.2812488 128.366155,96.8024752 128.068985,95.3779469 C127.774173,93.9487016 126.771815,92.7670978 125.425117,92.229362 C104.010022,83.7128526 79.6397395,88.734079 63.3496451,105.017098 C48.9675697,119.399173 43.637381,139.566626 47.8590791,158.314268 C47.3166263,167.60672 38.8685131,178.495871 34.5005885,182.936909 L0.934550794,216.429834 C9.5336074,228.854362 20.4534187,239.540683 33.0737017,247.870871 L65.0477583,215.955777 C69.5312489,211.538324 81.6397395,203.210494 90.8637961,202.255305 C92.2553055,202.344928 95.1350225,202.535966 95.7741734,202.677475 L95.7694565,202.62323 C113.755306,205.236437 131.922758,199.363796 144.844928,186.458136 C161.135022,170.193985 166.165683,145.833136 157.646815,124.432192 C157.109079,123.073702 155.925117,122.078419 154.493513,121.781249 L154.493513,121.781249 Z" id="Shape-Copy" fill="#231F20" transform="translate(81.336248, 168.004086) rotate(-180.000000) translate(-81.336248, -168.004086) "></path>
    </g>
</svg>